M48
;DRILL file {KiCad 4.0.6} date Fri Oct 13 10:11:16 2017
;FORMAT={-:-/ absolute / metric / decimal}
FMAT,2
METRIC,TZ
T1C1.000
T2C1.016
T3C1.200
%
G90
G05
M71
T1
X129.286Y-82.804
X129.286Y-85.344
X129.286Y-92.202
X129.286Y-94.742
X129.286Y-97.282
X129.286Y-99.822
T2
X78.232Y-79.248
X78.232Y-102.108
X80.772Y-79.248
X80.772Y-102.108
X83.312Y-79.248
X83.312Y-102.108
X85.852Y-79.248
X85.852Y-102.108
X88.392Y-79.248
X88.392Y-102.108
X90.932Y-79.248
X90.932Y-102.108
X93.472Y-79.248
X93.472Y-102.108
X96.012Y-79.248
X96.012Y-102.108
T3
X108.966Y-100.838
X111.506Y-80.518
X111.506Y-100.838
X114.046Y-80.518
X114.046Y-100.838
X116.586Y-80.518
X116.586Y-100.838
X119.126Y-80.518
X119.126Y-100.838
X121.666Y-100.838
T0
M30
