G04 #@! TF.FileFunction,Copper,L1,Top,Signal*
%FSLAX46Y46*%
G04 Gerber Fmt 4.6, Leading zero omitted, Abs format (unit mm)*
G04 Created by KiCad (PCBNEW 4.0.6) date Fri Oct 13 10:11:11 2017*
%MOMM*%
%LPD*%
G01*
G04 APERTURE LIST*
%ADD10C,0.100000*%
%ADD11C,1.800000*%
%ADD12R,1.700000X1.700000*%
%ADD13O,1.700000X1.700000*%
%ADD14C,2.000000*%
%ADD15C,1.000000*%
%ADD16C,0.254000*%
G04 APERTURE END LIST*
D10*
D11*
X96012000Y-102108000D03*
X93472000Y-102108000D03*
X90932000Y-102108000D03*
X88392000Y-102108000D03*
X85852000Y-102108000D03*
X83312000Y-102108000D03*
X80772000Y-102108000D03*
X78232000Y-102108000D03*
X78232000Y-79248000D03*
X80772000Y-79248000D03*
X83312000Y-79248000D03*
X85852000Y-79248000D03*
X88392000Y-79248000D03*
X90932000Y-79248000D03*
X93472000Y-79248000D03*
X96012000Y-79248000D03*
D12*
X129286000Y-82804000D03*
D13*
X129286000Y-85344000D03*
D12*
X129286000Y-92202000D03*
D13*
X129286000Y-94742000D03*
X129286000Y-97282000D03*
X129286000Y-99822000D03*
D14*
X121666000Y-100838000D03*
X119126000Y-100838000D03*
X116586000Y-100838000D03*
X114046000Y-100838000D03*
X111506000Y-100838000D03*
X108966000Y-100838000D03*
X111506000Y-80518000D03*
X114046000Y-80518000D03*
X116586000Y-80518000D03*
X119126000Y-80518000D03*
D15*
X128083919Y-85344000D02*
X129286000Y-85344000D01*
X78232000Y-102108000D02*
X78232000Y-104140000D01*
X78232000Y-104140000D02*
X78994000Y-104902000D01*
X78994000Y-104902000D02*
X100330000Y-104775000D01*
X100330000Y-104775000D02*
X122296238Y-85344000D01*
X122296238Y-85344000D02*
X128083919Y-85344000D01*
X129286000Y-92202000D02*
X118110000Y-92202000D01*
X118110000Y-92202000D02*
X114046000Y-96266000D01*
X114046000Y-96266000D02*
X114046000Y-100838000D01*
X116586000Y-97536000D02*
X119380000Y-94742000D01*
X119380000Y-94742000D02*
X129286000Y-94742000D01*
X116586000Y-100838000D02*
X116586000Y-97536000D01*
X119126000Y-100838000D02*
X119126000Y-99760370D01*
X119126000Y-99760370D02*
X121604370Y-97282000D01*
X121604370Y-97282000D02*
X128083919Y-97282000D01*
X128083919Y-97282000D02*
X129286000Y-97282000D01*
X122682000Y-99822000D02*
X129286000Y-99822000D01*
X121666000Y-100838000D02*
X122682000Y-99822000D01*
X85852000Y-79248000D02*
X86000000Y-82000000D01*
X86000000Y-82000000D02*
X89000000Y-84500000D01*
X89000000Y-84500000D02*
X113500000Y-84500000D01*
X113500000Y-84500000D02*
X116500000Y-81500000D01*
X116500000Y-81500000D02*
X116586000Y-80518000D01*
X113000000Y-82500000D02*
X114000000Y-81500000D01*
X114000000Y-81500000D02*
X114046000Y-80518000D01*
X90500000Y-82500000D02*
X113000000Y-82500000D01*
X88392000Y-79248000D02*
X88392000Y-80520792D01*
X88392000Y-80520792D02*
X90500000Y-82500000D01*
X111506000Y-80518000D02*
X111506000Y-79506000D01*
X78740000Y-75565000D02*
X78232000Y-76073000D01*
X107630630Y-75565000D02*
X78740000Y-75565000D01*
X78232000Y-76073000D02*
X78232000Y-79248000D01*
X107630630Y-75565000D02*
X107630630Y-75630630D01*
X111506000Y-79506000D02*
X107630630Y-75630630D01*
D16*
G36*
X131370000Y-105970000D02*
X90253396Y-105970000D01*
X100336756Y-105909980D01*
X100517059Y-105872998D01*
X100699435Y-105848193D01*
X100732775Y-105828753D01*
X100770580Y-105820999D01*
X100923004Y-105717835D01*
X101082007Y-105625124D01*
X107881398Y-99610486D01*
X107580722Y-99910637D01*
X107331284Y-100511352D01*
X107330716Y-101161795D01*
X107579106Y-101762943D01*
X108038637Y-102223278D01*
X108639352Y-102472716D01*
X109289795Y-102473284D01*
X109890943Y-102224894D01*
X110236199Y-101880241D01*
X110578637Y-102223278D01*
X111179352Y-102472716D01*
X111829795Y-102473284D01*
X112430943Y-102224894D01*
X112776199Y-101880241D01*
X113118637Y-102223278D01*
X113719352Y-102472716D01*
X114369795Y-102473284D01*
X114970943Y-102224894D01*
X115316199Y-101880241D01*
X115658637Y-102223278D01*
X116259352Y-102472716D01*
X116909795Y-102473284D01*
X117510943Y-102224894D01*
X117856199Y-101880241D01*
X118198637Y-102223278D01*
X118799352Y-102472716D01*
X119449795Y-102473284D01*
X120050943Y-102224894D01*
X120396199Y-101880241D01*
X120738637Y-102223278D01*
X121339352Y-102472716D01*
X121989795Y-102473284D01*
X122590943Y-102224894D01*
X123051278Y-101765363D01*
X123300716Y-101164648D01*
X123300897Y-100957000D01*
X128333984Y-100957000D01*
X128688622Y-101193961D01*
X129256907Y-101307000D01*
X129315093Y-101307000D01*
X129883378Y-101193961D01*
X130365147Y-100872054D01*
X130687054Y-100390285D01*
X130800093Y-99822000D01*
X130687054Y-99253715D01*
X130365147Y-98771946D01*
X130035974Y-98552000D01*
X130365147Y-98332054D01*
X130687054Y-97850285D01*
X130800093Y-97282000D01*
X130687054Y-96713715D01*
X130365147Y-96231946D01*
X130035974Y-96012000D01*
X130365147Y-95792054D01*
X130687054Y-95310285D01*
X130800093Y-94742000D01*
X130687054Y-94173715D01*
X130365147Y-93691946D01*
X130323548Y-93664150D01*
X130371317Y-93655162D01*
X130587441Y-93516090D01*
X130732431Y-93303890D01*
X130783440Y-93052000D01*
X130783440Y-91352000D01*
X130739162Y-91116683D01*
X130600090Y-90900559D01*
X130387890Y-90755569D01*
X130136000Y-90704560D01*
X128436000Y-90704560D01*
X128200683Y-90748838D01*
X127984559Y-90887910D01*
X127862192Y-91067000D01*
X118110000Y-91067000D01*
X117675654Y-91153397D01*
X117378424Y-91352000D01*
X117307434Y-91399434D01*
X113243434Y-95463434D01*
X112997397Y-95831654D01*
X112911000Y-96266000D01*
X112911000Y-99660796D01*
X112775801Y-99795759D01*
X112433363Y-99452722D01*
X111832648Y-99203284D01*
X111182205Y-99202716D01*
X110581057Y-99451106D01*
X110235801Y-99795759D01*
X109893363Y-99452722D01*
X109292648Y-99203284D01*
X108642205Y-99202716D01*
X108079556Y-99435198D01*
X122726200Y-86479000D01*
X128333984Y-86479000D01*
X128688622Y-86715961D01*
X129256907Y-86829000D01*
X129315093Y-86829000D01*
X129883378Y-86715961D01*
X130365147Y-86394054D01*
X130687054Y-85912285D01*
X130800093Y-85344000D01*
X130687054Y-84775715D01*
X130365147Y-84293946D01*
X130321223Y-84264597D01*
X130495698Y-84192327D01*
X130674327Y-84013699D01*
X130771000Y-83780310D01*
X130771000Y-83089750D01*
X130612250Y-82931000D01*
X129413000Y-82931000D01*
X129413000Y-82951000D01*
X129159000Y-82951000D01*
X129159000Y-82931000D01*
X127959750Y-82931000D01*
X127801000Y-83089750D01*
X127801000Y-83780310D01*
X127897673Y-84013699D01*
X128076302Y-84192327D01*
X128116554Y-84209000D01*
X122296238Y-84209000D01*
X122112466Y-84245555D01*
X121926803Y-84270807D01*
X121896404Y-84288532D01*
X121861892Y-84295397D01*
X121706101Y-84399493D01*
X121544231Y-84493876D01*
X99897148Y-103642556D01*
X79461330Y-103764198D01*
X79367000Y-103669868D01*
X79367000Y-103188159D01*
X79871446Y-103188159D01*
X79957852Y-103444643D01*
X80531336Y-103654458D01*
X81141460Y-103628839D01*
X81586148Y-103444643D01*
X81672554Y-103188159D01*
X80772000Y-102287605D01*
X79871446Y-103188159D01*
X79367000Y-103188159D01*
X79367000Y-103143905D01*
X79532551Y-102978643D01*
X79541203Y-102957806D01*
X79691841Y-103008554D01*
X80592395Y-102108000D01*
X80951605Y-102108000D01*
X81852159Y-103008554D01*
X82002327Y-102957965D01*
X82009932Y-102976371D01*
X82441357Y-103408551D01*
X83005330Y-103642733D01*
X83615991Y-103643265D01*
X84180371Y-103410068D01*
X84582323Y-103008818D01*
X84981357Y-103408551D01*
X85545330Y-103642733D01*
X86155991Y-103643265D01*
X86720371Y-103410068D01*
X87122323Y-103008818D01*
X87521357Y-103408551D01*
X88085330Y-103642733D01*
X88695991Y-103643265D01*
X89260371Y-103410068D01*
X89662323Y-103008818D01*
X90061357Y-103408551D01*
X90625330Y-103642733D01*
X91235991Y-103643265D01*
X91800371Y-103410068D01*
X92202323Y-103008818D01*
X92601357Y-103408551D01*
X93165330Y-103642733D01*
X93775991Y-103643265D01*
X94340371Y-103410068D01*
X94742323Y-103008818D01*
X95141357Y-103408551D01*
X95705330Y-103642733D01*
X96315991Y-103643265D01*
X96880371Y-103410068D01*
X97312551Y-102978643D01*
X97546733Y-102414670D01*
X97547265Y-101804009D01*
X97314068Y-101239629D01*
X96882643Y-100807449D01*
X96318670Y-100573267D01*
X95708009Y-100572735D01*
X95143629Y-100805932D01*
X94741677Y-101207182D01*
X94342643Y-100807449D01*
X93778670Y-100573267D01*
X93168009Y-100572735D01*
X92603629Y-100805932D01*
X92201677Y-101207182D01*
X91802643Y-100807449D01*
X91238670Y-100573267D01*
X90628009Y-100572735D01*
X90063629Y-100805932D01*
X89661677Y-101207182D01*
X89262643Y-100807449D01*
X88698670Y-100573267D01*
X88088009Y-100572735D01*
X87523629Y-100805932D01*
X87121677Y-101207182D01*
X86722643Y-100807449D01*
X86158670Y-100573267D01*
X85548009Y-100572735D01*
X84983629Y-100805932D01*
X84581677Y-101207182D01*
X84182643Y-100807449D01*
X83618670Y-100573267D01*
X83008009Y-100572735D01*
X82443629Y-100805932D01*
X82011449Y-101237357D01*
X82002797Y-101258194D01*
X81852159Y-101207446D01*
X80951605Y-102108000D01*
X80592395Y-102108000D01*
X79691841Y-101207446D01*
X79541673Y-101258035D01*
X79534068Y-101239629D01*
X79322650Y-101027841D01*
X79871446Y-101027841D01*
X80772000Y-101928395D01*
X81672554Y-101027841D01*
X81586148Y-100771357D01*
X81012664Y-100561542D01*
X80402540Y-100587161D01*
X79957852Y-100771357D01*
X79871446Y-101027841D01*
X79322650Y-101027841D01*
X79102643Y-100807449D01*
X78538670Y-100573267D01*
X77928009Y-100572735D01*
X77363629Y-100805932D01*
X76931449Y-101237357D01*
X76697267Y-101801330D01*
X76696735Y-102411991D01*
X76929932Y-102976371D01*
X77097000Y-103143731D01*
X77097000Y-104140000D01*
X77183397Y-104574346D01*
X77312956Y-104768244D01*
X77429434Y-104942566D01*
X78191434Y-105704566D01*
X78194295Y-105706478D01*
X78196225Y-105709329D01*
X78378381Y-105829480D01*
X78559655Y-105950603D01*
X78563029Y-105951274D01*
X78565903Y-105953170D01*
X78653226Y-105970000D01*
X70560000Y-105970000D01*
X70560000Y-79551991D01*
X76696735Y-79551991D01*
X76929932Y-80116371D01*
X77361357Y-80548551D01*
X77925330Y-80782733D01*
X78535991Y-80783265D01*
X79100371Y-80550068D01*
X79502323Y-80148818D01*
X79901357Y-80548551D01*
X80465330Y-80782733D01*
X81075991Y-80783265D01*
X81640371Y-80550068D01*
X82042323Y-80148818D01*
X82441357Y-80548551D01*
X83005330Y-80782733D01*
X83615991Y-80783265D01*
X84180371Y-80550068D01*
X84582323Y-80148818D01*
X84774139Y-80340970D01*
X84866638Y-82060951D01*
X84871908Y-82081581D01*
X84869661Y-82102758D01*
X84926526Y-82295416D01*
X84976235Y-82490031D01*
X84988999Y-82507076D01*
X84995027Y-82527498D01*
X85121284Y-82683721D01*
X85241691Y-82844507D01*
X85260006Y-82855370D01*
X85273391Y-82871931D01*
X88273391Y-85371931D01*
X88423529Y-85453638D01*
X88565654Y-85548603D01*
X88616679Y-85558752D01*
X88662375Y-85583621D01*
X88832356Y-85601653D01*
X89000000Y-85635000D01*
X95873000Y-85635000D01*
X95873000Y-97500000D01*
X95881685Y-97546159D01*
X95908965Y-97588553D01*
X95950590Y-97616994D01*
X96000000Y-97627000D01*
X104000000Y-97627000D01*
X104046159Y-97618315D01*
X104088553Y-97591035D01*
X104116994Y-97549410D01*
X104127000Y-97500000D01*
X104127000Y-85635000D01*
X113500000Y-85635000D01*
X113934346Y-85548603D01*
X114302566Y-85302566D01*
X117302566Y-82302566D01*
X117398556Y-82158908D01*
X117506711Y-82024173D01*
X117520746Y-81976038D01*
X117548604Y-81934345D01*
X117565244Y-81850687D01*
X117745714Y-81670532D01*
X118153073Y-81670532D01*
X118251736Y-81937387D01*
X118861461Y-82163908D01*
X119511460Y-82139856D01*
X120000264Y-81937387D01*
X120040821Y-81827690D01*
X127801000Y-81827690D01*
X127801000Y-82518250D01*
X127959750Y-82677000D01*
X129159000Y-82677000D01*
X129159000Y-81477750D01*
X129413000Y-81477750D01*
X129413000Y-82677000D01*
X130612250Y-82677000D01*
X130771000Y-82518250D01*
X130771000Y-81827690D01*
X130674327Y-81594301D01*
X130495698Y-81415673D01*
X130262309Y-81319000D01*
X129571750Y-81319000D01*
X129413000Y-81477750D01*
X129159000Y-81477750D01*
X129000250Y-81319000D01*
X128309691Y-81319000D01*
X128076302Y-81415673D01*
X127897673Y-81594301D01*
X127801000Y-81827690D01*
X120040821Y-81827690D01*
X120098927Y-81670532D01*
X119126000Y-80697605D01*
X118153073Y-81670532D01*
X117745714Y-81670532D01*
X117938562Y-81478022D01*
X117973468Y-81490927D01*
X118946395Y-80518000D01*
X119305605Y-80518000D01*
X120278532Y-81490927D01*
X120545387Y-81392264D01*
X120771908Y-80782539D01*
X120747856Y-80132540D01*
X120545387Y-79643736D01*
X120278532Y-79545073D01*
X119305605Y-80518000D01*
X118946395Y-80518000D01*
X117973468Y-79545073D01*
X117938062Y-79558164D01*
X117745703Y-79365468D01*
X118153073Y-79365468D01*
X119126000Y-80338395D01*
X120098927Y-79365468D01*
X120000264Y-79098613D01*
X119390539Y-78872092D01*
X118740540Y-78896144D01*
X118251736Y-79098613D01*
X118153073Y-79365468D01*
X117745703Y-79365468D01*
X117513363Y-79132722D01*
X116912648Y-78883284D01*
X116262205Y-78882716D01*
X115661057Y-79131106D01*
X115315801Y-79475759D01*
X114973363Y-79132722D01*
X114372648Y-78883284D01*
X113722205Y-78882716D01*
X113121057Y-79131106D01*
X112775801Y-79475759D01*
X112599943Y-79299594D01*
X112554603Y-79071654D01*
X112308566Y-78703434D01*
X108565354Y-74960222D01*
X108433196Y-74762434D01*
X108064976Y-74516397D01*
X107630630Y-74430000D01*
X78740000Y-74430000D01*
X78305654Y-74516397D01*
X77937433Y-74762434D01*
X77429434Y-75270434D01*
X77183397Y-75638654D01*
X77097000Y-76073000D01*
X77097000Y-78212095D01*
X76931449Y-78377357D01*
X76697267Y-78941330D01*
X76696735Y-79551991D01*
X70560000Y-79551991D01*
X70560000Y-73100000D01*
X131370000Y-73100000D01*
X131370000Y-105970000D01*
X131370000Y-105970000D01*
G37*
X131370000Y-105970000D02*
X90253396Y-105970000D01*
X100336756Y-105909980D01*
X100517059Y-105872998D01*
X100699435Y-105848193D01*
X100732775Y-105828753D01*
X100770580Y-105820999D01*
X100923004Y-105717835D01*
X101082007Y-105625124D01*
X107881398Y-99610486D01*
X107580722Y-99910637D01*
X107331284Y-100511352D01*
X107330716Y-101161795D01*
X107579106Y-101762943D01*
X108038637Y-102223278D01*
X108639352Y-102472716D01*
X109289795Y-102473284D01*
X109890943Y-102224894D01*
X110236199Y-101880241D01*
X110578637Y-102223278D01*
X111179352Y-102472716D01*
X111829795Y-102473284D01*
X112430943Y-102224894D01*
X112776199Y-101880241D01*
X113118637Y-102223278D01*
X113719352Y-102472716D01*
X114369795Y-102473284D01*
X114970943Y-102224894D01*
X115316199Y-101880241D01*
X115658637Y-102223278D01*
X116259352Y-102472716D01*
X116909795Y-102473284D01*
X117510943Y-102224894D01*
X117856199Y-101880241D01*
X118198637Y-102223278D01*
X118799352Y-102472716D01*
X119449795Y-102473284D01*
X120050943Y-102224894D01*
X120396199Y-101880241D01*
X120738637Y-102223278D01*
X121339352Y-102472716D01*
X121989795Y-102473284D01*
X122590943Y-102224894D01*
X123051278Y-101765363D01*
X123300716Y-101164648D01*
X123300897Y-100957000D01*
X128333984Y-100957000D01*
X128688622Y-101193961D01*
X129256907Y-101307000D01*
X129315093Y-101307000D01*
X129883378Y-101193961D01*
X130365147Y-100872054D01*
X130687054Y-100390285D01*
X130800093Y-99822000D01*
X130687054Y-99253715D01*
X130365147Y-98771946D01*
X130035974Y-98552000D01*
X130365147Y-98332054D01*
X130687054Y-97850285D01*
X130800093Y-97282000D01*
X130687054Y-96713715D01*
X130365147Y-96231946D01*
X130035974Y-96012000D01*
X130365147Y-95792054D01*
X130687054Y-95310285D01*
X130800093Y-94742000D01*
X130687054Y-94173715D01*
X130365147Y-93691946D01*
X130323548Y-93664150D01*
X130371317Y-93655162D01*
X130587441Y-93516090D01*
X130732431Y-93303890D01*
X130783440Y-93052000D01*
X130783440Y-91352000D01*
X130739162Y-91116683D01*
X130600090Y-90900559D01*
X130387890Y-90755569D01*
X130136000Y-90704560D01*
X128436000Y-90704560D01*
X128200683Y-90748838D01*
X127984559Y-90887910D01*
X127862192Y-91067000D01*
X118110000Y-91067000D01*
X117675654Y-91153397D01*
X117378424Y-91352000D01*
X117307434Y-91399434D01*
X113243434Y-95463434D01*
X112997397Y-95831654D01*
X112911000Y-96266000D01*
X112911000Y-99660796D01*
X112775801Y-99795759D01*
X112433363Y-99452722D01*
X111832648Y-99203284D01*
X111182205Y-99202716D01*
X110581057Y-99451106D01*
X110235801Y-99795759D01*
X109893363Y-99452722D01*
X109292648Y-99203284D01*
X108642205Y-99202716D01*
X108079556Y-99435198D01*
X122726200Y-86479000D01*
X128333984Y-86479000D01*
X128688622Y-86715961D01*
X129256907Y-86829000D01*
X129315093Y-86829000D01*
X129883378Y-86715961D01*
X130365147Y-86394054D01*
X130687054Y-85912285D01*
X130800093Y-85344000D01*
X130687054Y-84775715D01*
X130365147Y-84293946D01*
X130321223Y-84264597D01*
X130495698Y-84192327D01*
X130674327Y-84013699D01*
X130771000Y-83780310D01*
X130771000Y-83089750D01*
X130612250Y-82931000D01*
X129413000Y-82931000D01*
X129413000Y-82951000D01*
X129159000Y-82951000D01*
X129159000Y-82931000D01*
X127959750Y-82931000D01*
X127801000Y-83089750D01*
X127801000Y-83780310D01*
X127897673Y-84013699D01*
X128076302Y-84192327D01*
X128116554Y-84209000D01*
X122296238Y-84209000D01*
X122112466Y-84245555D01*
X121926803Y-84270807D01*
X121896404Y-84288532D01*
X121861892Y-84295397D01*
X121706101Y-84399493D01*
X121544231Y-84493876D01*
X99897148Y-103642556D01*
X79461330Y-103764198D01*
X79367000Y-103669868D01*
X79367000Y-103188159D01*
X79871446Y-103188159D01*
X79957852Y-103444643D01*
X80531336Y-103654458D01*
X81141460Y-103628839D01*
X81586148Y-103444643D01*
X81672554Y-103188159D01*
X80772000Y-102287605D01*
X79871446Y-103188159D01*
X79367000Y-103188159D01*
X79367000Y-103143905D01*
X79532551Y-102978643D01*
X79541203Y-102957806D01*
X79691841Y-103008554D01*
X80592395Y-102108000D01*
X80951605Y-102108000D01*
X81852159Y-103008554D01*
X82002327Y-102957965D01*
X82009932Y-102976371D01*
X82441357Y-103408551D01*
X83005330Y-103642733D01*
X83615991Y-103643265D01*
X84180371Y-103410068D01*
X84582323Y-103008818D01*
X84981357Y-103408551D01*
X85545330Y-103642733D01*
X86155991Y-103643265D01*
X86720371Y-103410068D01*
X87122323Y-103008818D01*
X87521357Y-103408551D01*
X88085330Y-103642733D01*
X88695991Y-103643265D01*
X89260371Y-103410068D01*
X89662323Y-103008818D01*
X90061357Y-103408551D01*
X90625330Y-103642733D01*
X91235991Y-103643265D01*
X91800371Y-103410068D01*
X92202323Y-103008818D01*
X92601357Y-103408551D01*
X93165330Y-103642733D01*
X93775991Y-103643265D01*
X94340371Y-103410068D01*
X94742323Y-103008818D01*
X95141357Y-103408551D01*
X95705330Y-103642733D01*
X96315991Y-103643265D01*
X96880371Y-103410068D01*
X97312551Y-102978643D01*
X97546733Y-102414670D01*
X97547265Y-101804009D01*
X97314068Y-101239629D01*
X96882643Y-100807449D01*
X96318670Y-100573267D01*
X95708009Y-100572735D01*
X95143629Y-100805932D01*
X94741677Y-101207182D01*
X94342643Y-100807449D01*
X93778670Y-100573267D01*
X93168009Y-100572735D01*
X92603629Y-100805932D01*
X92201677Y-101207182D01*
X91802643Y-100807449D01*
X91238670Y-100573267D01*
X90628009Y-100572735D01*
X90063629Y-100805932D01*
X89661677Y-101207182D01*
X89262643Y-100807449D01*
X88698670Y-100573267D01*
X88088009Y-100572735D01*
X87523629Y-100805932D01*
X87121677Y-101207182D01*
X86722643Y-100807449D01*
X86158670Y-100573267D01*
X85548009Y-100572735D01*
X84983629Y-100805932D01*
X84581677Y-101207182D01*
X84182643Y-100807449D01*
X83618670Y-100573267D01*
X83008009Y-100572735D01*
X82443629Y-100805932D01*
X82011449Y-101237357D01*
X82002797Y-101258194D01*
X81852159Y-101207446D01*
X80951605Y-102108000D01*
X80592395Y-102108000D01*
X79691841Y-101207446D01*
X79541673Y-101258035D01*
X79534068Y-101239629D01*
X79322650Y-101027841D01*
X79871446Y-101027841D01*
X80772000Y-101928395D01*
X81672554Y-101027841D01*
X81586148Y-100771357D01*
X81012664Y-100561542D01*
X80402540Y-100587161D01*
X79957852Y-100771357D01*
X79871446Y-101027841D01*
X79322650Y-101027841D01*
X79102643Y-100807449D01*
X78538670Y-100573267D01*
X77928009Y-100572735D01*
X77363629Y-100805932D01*
X76931449Y-101237357D01*
X76697267Y-101801330D01*
X76696735Y-102411991D01*
X76929932Y-102976371D01*
X77097000Y-103143731D01*
X77097000Y-104140000D01*
X77183397Y-104574346D01*
X77312956Y-104768244D01*
X77429434Y-104942566D01*
X78191434Y-105704566D01*
X78194295Y-105706478D01*
X78196225Y-105709329D01*
X78378381Y-105829480D01*
X78559655Y-105950603D01*
X78563029Y-105951274D01*
X78565903Y-105953170D01*
X78653226Y-105970000D01*
X70560000Y-105970000D01*
X70560000Y-79551991D01*
X76696735Y-79551991D01*
X76929932Y-80116371D01*
X77361357Y-80548551D01*
X77925330Y-80782733D01*
X78535991Y-80783265D01*
X79100371Y-80550068D01*
X79502323Y-80148818D01*
X79901357Y-80548551D01*
X80465330Y-80782733D01*
X81075991Y-80783265D01*
X81640371Y-80550068D01*
X82042323Y-80148818D01*
X82441357Y-80548551D01*
X83005330Y-80782733D01*
X83615991Y-80783265D01*
X84180371Y-80550068D01*
X84582323Y-80148818D01*
X84774139Y-80340970D01*
X84866638Y-82060951D01*
X84871908Y-82081581D01*
X84869661Y-82102758D01*
X84926526Y-82295416D01*
X84976235Y-82490031D01*
X84988999Y-82507076D01*
X84995027Y-82527498D01*
X85121284Y-82683721D01*
X85241691Y-82844507D01*
X85260006Y-82855370D01*
X85273391Y-82871931D01*
X88273391Y-85371931D01*
X88423529Y-85453638D01*
X88565654Y-85548603D01*
X88616679Y-85558752D01*
X88662375Y-85583621D01*
X88832356Y-85601653D01*
X89000000Y-85635000D01*
X95873000Y-85635000D01*
X95873000Y-97500000D01*
X95881685Y-97546159D01*
X95908965Y-97588553D01*
X95950590Y-97616994D01*
X96000000Y-97627000D01*
X104000000Y-97627000D01*
X104046159Y-97618315D01*
X104088553Y-97591035D01*
X104116994Y-97549410D01*
X104127000Y-97500000D01*
X104127000Y-85635000D01*
X113500000Y-85635000D01*
X113934346Y-85548603D01*
X114302566Y-85302566D01*
X117302566Y-82302566D01*
X117398556Y-82158908D01*
X117506711Y-82024173D01*
X117520746Y-81976038D01*
X117548604Y-81934345D01*
X117565244Y-81850687D01*
X117745714Y-81670532D01*
X118153073Y-81670532D01*
X118251736Y-81937387D01*
X118861461Y-82163908D01*
X119511460Y-82139856D01*
X120000264Y-81937387D01*
X120040821Y-81827690D01*
X127801000Y-81827690D01*
X127801000Y-82518250D01*
X127959750Y-82677000D01*
X129159000Y-82677000D01*
X129159000Y-81477750D01*
X129413000Y-81477750D01*
X129413000Y-82677000D01*
X130612250Y-82677000D01*
X130771000Y-82518250D01*
X130771000Y-81827690D01*
X130674327Y-81594301D01*
X130495698Y-81415673D01*
X130262309Y-81319000D01*
X129571750Y-81319000D01*
X129413000Y-81477750D01*
X129159000Y-81477750D01*
X129000250Y-81319000D01*
X128309691Y-81319000D01*
X128076302Y-81415673D01*
X127897673Y-81594301D01*
X127801000Y-81827690D01*
X120040821Y-81827690D01*
X120098927Y-81670532D01*
X119126000Y-80697605D01*
X118153073Y-81670532D01*
X117745714Y-81670532D01*
X117938562Y-81478022D01*
X117973468Y-81490927D01*
X118946395Y-80518000D01*
X119305605Y-80518000D01*
X120278532Y-81490927D01*
X120545387Y-81392264D01*
X120771908Y-80782539D01*
X120747856Y-80132540D01*
X120545387Y-79643736D01*
X120278532Y-79545073D01*
X119305605Y-80518000D01*
X118946395Y-80518000D01*
X117973468Y-79545073D01*
X117938062Y-79558164D01*
X117745703Y-79365468D01*
X118153073Y-79365468D01*
X119126000Y-80338395D01*
X120098927Y-79365468D01*
X120000264Y-79098613D01*
X119390539Y-78872092D01*
X118740540Y-78896144D01*
X118251736Y-79098613D01*
X118153073Y-79365468D01*
X117745703Y-79365468D01*
X117513363Y-79132722D01*
X116912648Y-78883284D01*
X116262205Y-78882716D01*
X115661057Y-79131106D01*
X115315801Y-79475759D01*
X114973363Y-79132722D01*
X114372648Y-78883284D01*
X113722205Y-78882716D01*
X113121057Y-79131106D01*
X112775801Y-79475759D01*
X112599943Y-79299594D01*
X112554603Y-79071654D01*
X112308566Y-78703434D01*
X108565354Y-74960222D01*
X108433196Y-74762434D01*
X108064976Y-74516397D01*
X107630630Y-74430000D01*
X78740000Y-74430000D01*
X78305654Y-74516397D01*
X77937433Y-74762434D01*
X77429434Y-75270434D01*
X77183397Y-75638654D01*
X77097000Y-76073000D01*
X77097000Y-78212095D01*
X76931449Y-78377357D01*
X76697267Y-78941330D01*
X76696735Y-79551991D01*
X70560000Y-79551991D01*
X70560000Y-73100000D01*
X131370000Y-73100000D01*
X131370000Y-105970000D01*
G36*
X113385066Y-85873000D02*
X104127000Y-85873000D01*
X104127000Y-85635000D01*
X113408866Y-85635000D01*
X113385066Y-85873000D01*
X113385066Y-85873000D01*
G37*
X113385066Y-85873000D02*
X104127000Y-85873000D01*
X104127000Y-85635000D01*
X113408866Y-85635000D01*
X113385066Y-85873000D01*
G36*
X88273391Y-85371931D02*
X88423529Y-85453638D01*
X88565654Y-85548603D01*
X88616679Y-85558752D01*
X88662375Y-85583621D01*
X88832356Y-85601653D01*
X89000000Y-85635000D01*
X95873000Y-85635000D01*
X95873000Y-85873000D01*
X88052606Y-85873000D01*
X86127000Y-83947394D01*
X86127000Y-83583272D01*
X88273391Y-85371931D01*
X88273391Y-85371931D01*
G37*
X88273391Y-85371931D02*
X88423529Y-85453638D01*
X88565654Y-85548603D01*
X88616679Y-85558752D01*
X88662375Y-85583621D01*
X88832356Y-85601653D01*
X89000000Y-85635000D01*
X95873000Y-85635000D01*
X95873000Y-85873000D01*
X88052606Y-85873000D01*
X86127000Y-83947394D01*
X86127000Y-83583272D01*
X88273391Y-85371931D01*
G36*
X87257000Y-80283731D02*
X87257000Y-80520792D01*
X87260545Y-80538614D01*
X87257563Y-80556539D01*
X87303619Y-80755163D01*
X87343397Y-80955138D01*
X87353493Y-80970247D01*
X87357597Y-80987948D01*
X87476156Y-81153826D01*
X87589434Y-81323358D01*
X87604542Y-81333453D01*
X87615109Y-81348237D01*
X89723109Y-83327445D01*
X89783338Y-83365000D01*
X89410926Y-83365000D01*
X87106786Y-81444883D01*
X87041428Y-80229572D01*
X87122323Y-80148818D01*
X87257000Y-80283731D01*
X87257000Y-80283731D01*
G37*
X87257000Y-80283731D02*
X87257000Y-80520792D01*
X87260545Y-80538614D01*
X87257563Y-80556539D01*
X87303619Y-80755163D01*
X87343397Y-80955138D01*
X87353493Y-80970247D01*
X87357597Y-80987948D01*
X87476156Y-81153826D01*
X87589434Y-81323358D01*
X87604542Y-81333453D01*
X87615109Y-81348237D01*
X89723109Y-83327445D01*
X89783338Y-83365000D01*
X89410926Y-83365000D01*
X87106786Y-81444883D01*
X87041428Y-80229572D01*
X87122323Y-80148818D01*
X87257000Y-80283731D01*
G36*
X110081049Y-79686181D02*
X109871284Y-80191352D01*
X109870716Y-80841795D01*
X110086901Y-81365000D01*
X90949323Y-81365000D01*
X90118399Y-80584843D01*
X90373710Y-80678251D01*
X90625330Y-80782733D01*
X90659369Y-80782763D01*
X90691336Y-80794458D01*
X90963553Y-80783028D01*
X91235991Y-80783265D01*
X91267448Y-80770267D01*
X91301460Y-80768839D01*
X91746148Y-80584643D01*
X91750911Y-80570504D01*
X91800371Y-80550068D01*
X92202323Y-80148818D01*
X92601357Y-80548551D01*
X92652904Y-80569955D01*
X92657852Y-80584643D01*
X92913710Y-80678251D01*
X93165330Y-80782733D01*
X93199369Y-80782763D01*
X93231336Y-80794458D01*
X93503553Y-80783028D01*
X93775991Y-80783265D01*
X93807448Y-80770267D01*
X93841460Y-80768839D01*
X94286148Y-80584643D01*
X94290911Y-80570504D01*
X94340371Y-80550068D01*
X94742323Y-80148818D01*
X95141357Y-80548551D01*
X95192904Y-80569955D01*
X95197852Y-80584643D01*
X95453710Y-80678251D01*
X95705330Y-80782733D01*
X95739369Y-80782763D01*
X95771336Y-80794458D01*
X96043553Y-80783028D01*
X96315991Y-80783265D01*
X96347448Y-80770267D01*
X96381460Y-80768839D01*
X96826148Y-80584643D01*
X96830911Y-80570504D01*
X96880371Y-80550068D01*
X97312551Y-80118643D01*
X97333955Y-80067096D01*
X97348643Y-80062148D01*
X97442251Y-79806290D01*
X97546733Y-79554670D01*
X97546763Y-79520631D01*
X97558458Y-79488664D01*
X97547028Y-79216447D01*
X97547265Y-78944009D01*
X97534267Y-78912552D01*
X97532839Y-78878540D01*
X97348643Y-78433852D01*
X97334504Y-78429089D01*
X97314068Y-78379629D01*
X96882643Y-77947449D01*
X96831096Y-77926045D01*
X96826148Y-77911357D01*
X96570290Y-77817749D01*
X96318670Y-77713267D01*
X96284631Y-77713237D01*
X96252664Y-77701542D01*
X95980447Y-77712972D01*
X95708009Y-77712735D01*
X95676552Y-77725733D01*
X95642540Y-77727161D01*
X95197852Y-77911357D01*
X95193089Y-77925496D01*
X95143629Y-77945932D01*
X94741677Y-78347182D01*
X94342643Y-77947449D01*
X94291096Y-77926045D01*
X94286148Y-77911357D01*
X94030290Y-77817749D01*
X93778670Y-77713267D01*
X93744631Y-77713237D01*
X93712664Y-77701542D01*
X93440447Y-77712972D01*
X93168009Y-77712735D01*
X93136552Y-77725733D01*
X93102540Y-77727161D01*
X92657852Y-77911357D01*
X92653089Y-77925496D01*
X92603629Y-77945932D01*
X92201677Y-78347182D01*
X91802643Y-77947449D01*
X91751096Y-77926045D01*
X91746148Y-77911357D01*
X91490290Y-77817749D01*
X91238670Y-77713267D01*
X91204631Y-77713237D01*
X91172664Y-77701542D01*
X90900447Y-77712972D01*
X90628009Y-77712735D01*
X90596552Y-77725733D01*
X90562540Y-77727161D01*
X90117852Y-77911357D01*
X90113089Y-77925496D01*
X90063629Y-77945932D01*
X89661677Y-78347182D01*
X89262643Y-77947449D01*
X88698670Y-77713267D01*
X88088009Y-77712735D01*
X87523629Y-77945932D01*
X87121677Y-78347182D01*
X86722643Y-77947449D01*
X86158670Y-77713267D01*
X85548009Y-77712735D01*
X84983629Y-77945932D01*
X84581677Y-78347182D01*
X84182643Y-77947449D01*
X84131096Y-77926045D01*
X84126148Y-77911357D01*
X83870290Y-77817749D01*
X83618670Y-77713267D01*
X83584631Y-77713237D01*
X83552664Y-77701542D01*
X83280447Y-77712972D01*
X83008009Y-77712735D01*
X82976552Y-77725733D01*
X82942540Y-77727161D01*
X82497852Y-77911357D01*
X82493089Y-77925496D01*
X82443629Y-77945932D01*
X82041677Y-78347182D01*
X81642643Y-77947449D01*
X81591096Y-77926045D01*
X81586148Y-77911357D01*
X81330290Y-77817749D01*
X81078670Y-77713267D01*
X81044631Y-77713237D01*
X81012664Y-77701542D01*
X80740447Y-77712972D01*
X80468009Y-77712735D01*
X80436552Y-77725733D01*
X80402540Y-77727161D01*
X79957852Y-77911357D01*
X79953089Y-77925496D01*
X79903629Y-77945932D01*
X79501677Y-78347182D01*
X79367000Y-78212269D01*
X79367000Y-76700000D01*
X107094868Y-76700000D01*
X110081049Y-79686181D01*
X110081049Y-79686181D01*
G37*
X110081049Y-79686181D02*
X109871284Y-80191352D01*
X109870716Y-80841795D01*
X110086901Y-81365000D01*
X90949323Y-81365000D01*
X90118399Y-80584843D01*
X90373710Y-80678251D01*
X90625330Y-80782733D01*
X90659369Y-80782763D01*
X90691336Y-80794458D01*
X90963553Y-80783028D01*
X91235991Y-80783265D01*
X91267448Y-80770267D01*
X91301460Y-80768839D01*
X91746148Y-80584643D01*
X91750911Y-80570504D01*
X91800371Y-80550068D01*
X92202323Y-80148818D01*
X92601357Y-80548551D01*
X92652904Y-80569955D01*
X92657852Y-80584643D01*
X92913710Y-80678251D01*
X93165330Y-80782733D01*
X93199369Y-80782763D01*
X93231336Y-80794458D01*
X93503553Y-80783028D01*
X93775991Y-80783265D01*
X93807448Y-80770267D01*
X93841460Y-80768839D01*
X94286148Y-80584643D01*
X94290911Y-80570504D01*
X94340371Y-80550068D01*
X94742323Y-80148818D01*
X95141357Y-80548551D01*
X95192904Y-80569955D01*
X95197852Y-80584643D01*
X95453710Y-80678251D01*
X95705330Y-80782733D01*
X95739369Y-80782763D01*
X95771336Y-80794458D01*
X96043553Y-80783028D01*
X96315991Y-80783265D01*
X96347448Y-80770267D01*
X96381460Y-80768839D01*
X96826148Y-80584643D01*
X96830911Y-80570504D01*
X96880371Y-80550068D01*
X97312551Y-80118643D01*
X97333955Y-80067096D01*
X97348643Y-80062148D01*
X97442251Y-79806290D01*
X97546733Y-79554670D01*
X97546763Y-79520631D01*
X97558458Y-79488664D01*
X97547028Y-79216447D01*
X97547265Y-78944009D01*
X97534267Y-78912552D01*
X97532839Y-78878540D01*
X97348643Y-78433852D01*
X97334504Y-78429089D01*
X97314068Y-78379629D01*
X96882643Y-77947449D01*
X96831096Y-77926045D01*
X96826148Y-77911357D01*
X96570290Y-77817749D01*
X96318670Y-77713267D01*
X96284631Y-77713237D01*
X96252664Y-77701542D01*
X95980447Y-77712972D01*
X95708009Y-77712735D01*
X95676552Y-77725733D01*
X95642540Y-77727161D01*
X95197852Y-77911357D01*
X95193089Y-77925496D01*
X95143629Y-77945932D01*
X94741677Y-78347182D01*
X94342643Y-77947449D01*
X94291096Y-77926045D01*
X94286148Y-77911357D01*
X94030290Y-77817749D01*
X93778670Y-77713267D01*
X93744631Y-77713237D01*
X93712664Y-77701542D01*
X93440447Y-77712972D01*
X93168009Y-77712735D01*
X93136552Y-77725733D01*
X93102540Y-77727161D01*
X92657852Y-77911357D01*
X92653089Y-77925496D01*
X92603629Y-77945932D01*
X92201677Y-78347182D01*
X91802643Y-77947449D01*
X91751096Y-77926045D01*
X91746148Y-77911357D01*
X91490290Y-77817749D01*
X91238670Y-77713267D01*
X91204631Y-77713237D01*
X91172664Y-77701542D01*
X90900447Y-77712972D01*
X90628009Y-77712735D01*
X90596552Y-77725733D01*
X90562540Y-77727161D01*
X90117852Y-77911357D01*
X90113089Y-77925496D01*
X90063629Y-77945932D01*
X89661677Y-78347182D01*
X89262643Y-77947449D01*
X88698670Y-77713267D01*
X88088009Y-77712735D01*
X87523629Y-77945932D01*
X87121677Y-78347182D01*
X86722643Y-77947449D01*
X86158670Y-77713267D01*
X85548009Y-77712735D01*
X84983629Y-77945932D01*
X84581677Y-78347182D01*
X84182643Y-77947449D01*
X84131096Y-77926045D01*
X84126148Y-77911357D01*
X83870290Y-77817749D01*
X83618670Y-77713267D01*
X83584631Y-77713237D01*
X83552664Y-77701542D01*
X83280447Y-77712972D01*
X83008009Y-77712735D01*
X82976552Y-77725733D01*
X82942540Y-77727161D01*
X82497852Y-77911357D01*
X82493089Y-77925496D01*
X82443629Y-77945932D01*
X82041677Y-78347182D01*
X81642643Y-77947449D01*
X81591096Y-77926045D01*
X81586148Y-77911357D01*
X81330290Y-77817749D01*
X81078670Y-77713267D01*
X81044631Y-77713237D01*
X81012664Y-77701542D01*
X80740447Y-77712972D01*
X80468009Y-77712735D01*
X80436552Y-77725733D01*
X80402540Y-77727161D01*
X79957852Y-77911357D01*
X79953089Y-77925496D01*
X79903629Y-77945932D01*
X79501677Y-78347182D01*
X79367000Y-78212269D01*
X79367000Y-76700000D01*
X107094868Y-76700000D01*
X110081049Y-79686181D01*
G36*
X90112904Y-80569955D02*
X90117698Y-80584185D01*
X90094326Y-80562241D01*
X90112904Y-80569955D01*
X90112904Y-80569955D01*
G37*
X90112904Y-80569955D02*
X90117698Y-80584185D01*
X90094326Y-80562241D01*
X90112904Y-80569955D01*
G36*
X89786645Y-80273358D02*
X89658289Y-80152845D01*
X89662323Y-80148818D01*
X89786645Y-80273358D01*
X89786645Y-80273358D01*
G37*
X89786645Y-80273358D02*
X89658289Y-80152845D01*
X89662323Y-80148818D01*
X89786645Y-80273358D01*
M02*
